<svg width="29" height="29" viewBox="0 0 29 29" fill="none" xmlns="http://www.w3.org/2000/svg">
<g clip-path="url(#clip0_11_231)">
<path d="M13.1214 0.036363C8.58425 0.507092 4.60857 2.97417 2.19253 6.8194C-0.569455 11.2091 -0.733927 16.8975 1.76718 21.4404C3.21906 24.0833 5.41391 26.1817 8.13053 27.5145C9.6051 28.2347 11.0173 28.6658 12.7244 28.9096C13.3993 29.0061 15.6282 29.0004 16.3258 28.904C19.8534 28.4162 22.8366 26.8623 25.2413 24.2534C27.2206 22.1096 28.4853 19.3646 28.9277 16.2794C29.0241 15.6101 29.0241 13.3756 28.9277 12.7064C28.5931 10.347 27.8444 8.34502 26.6024 6.47345C26.0806 5.67944 25.5532 5.0329 24.8159 4.28994C22.553 1.99868 19.7513 0.586492 16.5243 0.110092C15.8267 0.00800578 13.8133 -0.0373657 13.1214 0.036363ZM13.6035 2.8494C13.8076 2.97984 13.87 3.0876 13.9381 3.37684C13.9721 3.51863 14.1309 5.56034 14.2897 7.91399C14.6357 13.024 14.63 13.2905 14.199 13.7272C13.8133 14.1129 13.3142 14.0505 12.8435 13.5627C12.6847 13.3983 12.1686 12.6496 11.6979 11.9067C8.52186 6.8988 7.56906 5.37886 7.501 5.21438C7.27981 4.68127 7.50667 4.33531 8.34604 3.93264C9.46332 3.38818 10.9322 2.94014 12.0268 2.81537C12.3161 2.78134 12.6337 2.74164 12.7244 2.7303C13.008 2.6906 13.4503 2.75298 13.6035 2.8494ZM20.5907 9.76288C20.9593 9.95571 21.7533 10.8178 22.2751 11.5891C22.5814 12.0428 23.0294 12.9389 23.1882 13.4153C23.381 13.9994 23.2676 14.3567 22.8252 14.5496C22.6948 14.612 21.4017 14.9522 19.9555 15.3152C17.1311 16.0241 17.0744 16.0298 16.6831 15.7916C16.2634 15.5307 16.0592 14.8218 16.3031 14.4532C16.4959 14.1526 19.4053 10.2109 19.5528 10.0465C19.8874 9.67781 20.239 9.58139 20.5907 9.76288ZM8.2156 14.2206C10.8018 15.2528 11.9928 15.7576 12.1799 15.8937C12.4068 16.0695 12.5259 16.3304 12.5259 16.6707C12.5259 17.096 12.3501 17.408 12.0041 17.5895C11.851 17.6689 10.0928 18.236 7.8186 18.9449C6.25896 19.4327 6.06045 19.4213 5.77121 18.8428C5.55003 18.4175 5.52167 15.8653 5.72584 14.7481C5.86763 13.9427 6.19657 13.5968 6.74103 13.6818C6.84878 13.6989 7.51234 13.9427 8.2156 14.2206ZM20.2674 18.8825C21.7023 19.3589 22.9443 19.7843 23.0351 19.824C23.2336 19.9204 23.4151 20.2153 23.4264 20.4592C23.4377 20.8335 22.9613 21.775 22.3148 22.6427C21.9065 23.1928 20.8799 24.2137 20.5793 24.3612C20.2504 24.5313 19.8988 24.537 19.6889 24.3838C19.5528 24.2874 17.9251 21.758 16.7738 19.8524C16.4505 19.3192 16.4335 19.2682 16.4562 18.9903C16.4789 18.65 16.6887 18.3097 16.9723 18.1226C17.3069 17.9127 17.4884 17.9524 20.2674 18.8825ZM13.8757 19.1775C14.1763 19.3022 14.3918 19.5291 14.4599 19.7957C14.5393 20.0736 14.4769 25.4898 14.3918 25.7563C14.3181 25.9945 14.1139 26.176 13.8473 26.2327C13.5638 26.3008 12.645 26.1647 11.885 25.9435C10.8698 25.6486 9.48033 24.8886 9.15706 24.4576C9.02095 24.2704 9.0096 23.9528 9.14005 23.7089C9.21945 23.5558 9.94539 22.6767 12.0779 20.1416C12.4465 19.7049 12.8492 19.2852 12.9683 19.2172C13.2178 19.064 13.5751 19.047 13.8757 19.1775Z" fill="white"/>
</g>
<defs>
<clipPath id="clip0_11_231">
<rect width="29" height="28.9792" fill="white"/>
</clipPath>
</defs>
</svg>
