<svg width="29" height="29" viewBox="0 0 29 29" fill="none" xmlns="http://www.w3.org/2000/svg">
<g clip-path="url(#clip0_11_222)">
<g clip-path="url(#clip1_11_222)">
<path d="M7.99917 13.0379C9.73917 16.4575 12.5425 19.2487 15.9621 21.0008L18.6204 18.3425C18.9467 18.0163 19.43 17.9075 19.8529 18.0525C21.2063 18.4996 22.6683 18.7413 24.1667 18.7413C24.8313 18.7413 25.375 19.285 25.375 19.9496V24.1667C25.375 24.8313 24.8313 25.375 24.1667 25.375C12.8204 25.375 3.625 16.1796 3.625 4.83333C3.625 4.16875 4.16875 3.625 4.83333 3.625H9.0625C9.72708 3.625 10.2708 4.16875 10.2708 4.83333C10.2708 6.34375 10.5125 7.79375 10.9596 9.14708C11.0925 9.57 10.9958 10.0413 10.6575 10.3796L7.99917 13.0379Z" fill="white"/>
</g>
</g>
<defs>
<clipPath id="clip0_11_222">
<rect width="29" height="29" fill="white"/>
</clipPath>
<clipPath id="clip1_11_222">
<rect width="29" height="29" fill="white"/>
</clipPath>
</defs>
</svg>
