<svg width="29" height="29" viewBox="0 0 29 29" fill="none" xmlns="http://www.w3.org/2000/svg">
<g clip-path="url(#clip0_11_223)">
<g clip-path="url(#clip1_11_223)">
<path d="M22.9583 9.66667H6.04163C4.03579 9.66667 2.41663 11.2858 2.41663 13.2917V20.5417H7.24996V25.375H21.75V20.5417H26.5833V13.2917C26.5833 11.2858 24.9641 9.66667 22.9583 9.66667ZM19.3333 22.9583H9.66663V16.9167H19.3333V22.9583ZM22.9583 14.5C22.2937 14.5 21.75 13.9563 21.75 13.2917C21.75 12.6271 22.2937 12.0833 22.9583 12.0833C23.6229 12.0833 24.1666 12.6271 24.1666 13.2917C24.1666 13.9563 23.6229 14.5 22.9583 14.5ZM21.75 3.625H7.24996V8.45833H21.75V3.625Z" fill="white"/>
</g>
</g>
<defs>
<clipPath id="clip0_11_223">
<rect width="29" height="29" fill="white"/>
</clipPath>
<clipPath id="clip1_11_223">
<rect width="29" height="29" fill="white"/>
</clipPath>
</defs>
</svg>
